<svg width="16" height="16" viewBox="0 0 16 16" fill="none" xmlns="http://www.w3.org/2000/svg">
<path d="M5.33333 10L4 14.6667M10.6667 10L12 14.6667" stroke="white" stroke-width="1.5" stroke-linecap="round" stroke-linejoin="round"/>
<path d="M8 7.33337C6.98553 7.33337 5.91287 7.52837 5.07202 7.78924C4.43887 7.98564 3.92956 8.88137 4.00799 9.60857C4.03705 9.87797 4.24585 10 4.46538 10H11.5346C11.7541 10 11.9629 9.87797 11.992 9.60857C12.0705 8.88137 11.5611 7.98564 10.928 7.78924C10.0871 7.52837 9.01447 7.33337 8 7.33337Z" stroke="white" stroke-width="1.5" stroke-linecap="round"/>
<path d="M4.66699 8.00004L5.09353 3.7347C5.20765 2.59345 5.26471 2.02283 5.64563 1.6781C6.02656 1.33337 6.60003 1.33337 7.74699 1.33337H8.25366C9.40066 1.33337 9.97412 1.33337 10.355 1.6781C10.7359 2.02283 10.793 2.59345 10.9071 3.7347L11.3337 8.00004" stroke="white" stroke-width="1.5" stroke-linecap="round" stroke-linejoin="round"/>
</svg>
